{"accessors":[{"bufferView":0,"byteOffset":0,"componentType":5126,"count":690,"max":[28.0,4.5,6.0],"min":[-36.0,-1.5,-32.0],"normalized":false,"type":"VEC3"},{"bufferView":1,"byteOffset":0,"componentType":5126,"count":690,"max":[1.0,0.0,1.0,1.0],"min":[-1.0,-1.0,-1.0,-1.0],"normalized":false,"type":"VEC4"},{"bufferView":2,"byteOffset":0,"componentType":5126,"count":690,"max":[1.0,1.0,1.0],"min":[-1.0,-1.0,-1.0],"normalized":false,"type":"VEC3"},{"bufferView":3,"byteOffset":0,"componentType":5126,"count":690,"max":[1.0,1.0],"min":[0.0,0.0],"normalized":false,"type":"VEC2"},{"bufferView":4,"byteOffset":0,"componentType":5123,"count":690,"max":[689.0],"min":[0.0],"normalized":false,"type":"SCALAR"}],"asset":{"generator":"Godot Engine v4.4.1.stable.official@49a5bc7b616bd04689a2c89e89bda41f50241464","version":"2.0"},"bufferViews":[{"buffer":0,"byteLength":8280,"byteOffset":0,"byteStride":12,"target":34962},{"buffer":0,"byteLength":11040,"byteOffset":8280,"byteStride":16,"target":34962},{"buffer":0,"byteLength":8280,"byteOffset":19320,"byteStride":12,"target":34962},{"buffer":0,"byteLength":5520,"byteOffset":27600,"byteStride":8,"target":34962},{"buffer":0,"byteLength":1380,"byteOffset":33120,"target":34963}],"buffers":[{"byteLength":34500,"uri":"main_level0.bin"}],"extensions":{"KHR_lights_punctual":{"lights":[{"type":"directional"}]}},"extensionsUsed":["GODOT_single_root","KHR_lights_punctual"],"images":[{"uri":"textures%2F_albedo000.png"}],"materials":[{"extensions":{},"pbrMetallicRoughness":{"baseColorFactor":[0.0370690114796162,0.0370690114796162,0.0370690114796162,1.0],"baseColorTexture":{"index":0},"metallicFactor":0.0,"roughnessFactor":1.0}}],"meshes":[{"extras":{"targetNames":[]},"primitives":[{"attributes":{"NORMAL":2,"POSITION":0,"TANGENT":1,"TEXCOORD_0":3},"indices":4,"material":0,"mode":4}]}],"nodes":[{"children":[1,2,3,23],"name":"MainLevel"},{"name":"WorldEnvironment"},{"extensions":{"KHR_lights_punctual":{"light":0}},"name":"DirectionalLight3D","rotation":[-0.129410728812218,0.836515307426453,0.482963681221008,0.22414530813694]},{"children":[4,7,9,11,13],"mesh":0,"name":"Room2","translation":[4.0,1.5,13.0]},{"children":[5,6],"name":"Overhang","translation":[-24.5,0.0,-2.0]},{"name":"Overhang2","translation":[2.5,0.0,2.5]},{"name":"Corridor6","rotation":[0.0,0.70710676908493,0.0,0.70710676908493],"translation":[-5.0,-0.25,-8.5]},{"children":[8],"name":"Overhang22","translation":[-29.0,0.0,-18.0]},{"name":"Overhang3","translation":[-3.0,0.0,0.0]},{"children":[10],"name":"Overhang32","translation":[-2.5,3.0,-22.0]},{"name":"Overhang4"},{"children":[12],"name":"Overhang42","translation":[23.0,0.0,-13.5]},{"name":"Overhang5","translation":[0.0,0.0,6.5]},{"children":[14,15,16,17,18,19,20,21,22],"name":"CSGCombiner3D"},{"name":"Room22","translation":[-24.5,1.5,-2.0]},{"name":"Corridor","translation":[-9.5,-0.25,0.5]},{"name":"Corridor2","rotation":[0.0,0.70710676908493,0.0,0.70710676908493],"translation":[-29.5,-0.25,-10.5]},{"name":"Corridor3","rotation":[0.0,1.0,0.0,-0.0000000437113882867379],"translation":[-19.5,2.75,-17.5]},{"name":"Corridor4","rotation":[0.0,0.70710676908493,0.0,0.70710676908493],"translation":[-11.5,2.75,-8.5]},{"name":"Corridor5","rotation":[0.0,1.0,0.0,-0.0000000437113882867379],"translation":[14.5,2.75,-23.5]},{"name":"Room3","translation":[-29.0,1.5,-18.0]},{"name":"Room4","translation":[-2.5,1.5,-22.0]},{"name":"Room5","translation":[23.0,1.5,-13.5]},{"name":"Sprite3D","scale":[2.40000009536743,2.40000009536743,2.40000009536743],"translation":[0.0,0.100000001490116,0.0]}],"samplers":[{"magFilter":9729,"minFilter":9987,"wrapS":10497,"wrapT":10497}],"scene":0,"scenes":[{"nodes":[0]}],"textures":[{"sampler":0,"source":0}]}